<svg xmlns="http://www.w3.org/2000/svg" id="Layer_1" data-name="Layer 1" viewBox="0 0 192 192"><defs><linearGradient id="linear-gradient" x1="65.43" x2="65.43" y1="176" y2="16" gradientUnits="userSpaceOnUse"><stop offset="0" stop-color="#0093ff"/><stop offset="1" stop-color="#00eccd"/></linearGradient><clipPath id="clippath"><path d="M114.86 96c0-5.85-2.67-11.06-6.85-14.5-4.72-3.89-7.27-9.83-7.27-15.95v-.25c0-6.13 2.55-12.08 7.27-15.97 4.46-3.68 7.2-9.36 6.81-15.67-.55-9.02-7.65-16.53-16.64-17.53-11.37-1.26-20.99 7.6-20.99 18.7 0 5.85 2.67 11.06 6.85 14.5 4.72 3.89 7.27 9.83 7.27 15.95v.38c0 3.87-1.11 7.69-3.14 10.98-2.3 3.71-6.14 7.45-9.56 10.14-3.67 2.89-8.26 4.51-12.94 4.51h-.37c-6.13 0-12.08-2.55-15.98-7.27-3.68-4.46-9.36-7.19-15.68-6.81-9.02.55-16.54 7.65-17.54 16.63-1.26 11.36 7.6 20.98 18.71 20.98 5.85 0 11.06-2.67 14.51-6.85 3.89-4.72 9.84-7.27 15.96-7.27h.38c3.91 0 7.78 1.13 11.08 3.21 3.71 2.33 7.31 6.09 10.04 9.49 2.91 3.63 4.52 8.29 4.52 12.94v.37c0 6.13-2.55 12.08-7.27 15.97-4.46 3.68-7.2 9.36-6.81 15.67.55 9.02 7.65 16.53 16.64 17.53 11.37 1.26 20.99-7.6 20.99-18.7 0-5.85-2.67-11.06-6.85-14.5-4.72-3.89-7.27-9.83-7.27-15.95v-.26c0-6.12 2.55-12.06 7.27-15.95 4.18-3.45 6.85-8.66 6.85-14.5Z" style="fill:none"/></clipPath><style>.cls-80{fill:#fff}.cls-94{fill:#101c37}</style></defs><path d="M98.12 114.81h48.63v30.86H98.12z" class="cls-80"/><path d="M127.28 81.47h-6.94c2.01 4.23 3.09 8.91 3.09 13.73 0 4.11-.82 8.1-2.3 11.82h6.15c12.77 0 23.16 9.74 23.16 21.72s-10.39 21.72-23.16 21.72h-4.63c.51 2.28.78 4.64.78 7.03 0 6.74-2.09 13.14-5.92 18.52h9.77c26.87 0 48.72-21.2 48.72-47.27s-21.86-47.26-48.72-47.26Z" class="cls-94"/><path d="M127.28 191H95.43l9.86-23.7c2.06-2.89 3.14-6.29 3.14-9.83 0-1.26-.14-2.52-.41-3.74l-4.1-18.28h23.36c4.43 0 8.16-3.08 8.16-6.72s-3.74-6.72-8.16-6.72H99.03l8.16-20.54c.82-2.07 1.24-4.18 1.24-6.28 0-2.55-.55-5.01-1.64-7.3L96.61 66.46h30.67c35.14 0 63.72 27.93 63.72 62.26s-28.59 62.27-63.72 62.27Z" class="cls-80"/><g style="clip-path:url(#clippath)"><path d="M14.86 176h100.35v1.14H14.86zm0-1.8h100.35v1.8H14.86z" style="fill:#0093ff"/><path d="M14.86 172.4h100.35v1.8H14.86z" style="fill:#0094fe"/><path d="M14.86 170.61h100.35v1.8H14.86z" style="fill:#0095fe"/><path d="M14.86 168.81h100.35v1.8H14.86z" style="fill:#0096fd"/><path d="M14.86 167.01h100.35v1.8H14.86z" style="fill:#0097fd"/><path d="M14.86 165.21h100.35v1.8H14.86z" style="fill:#0098fc"/><path d="M14.86 163.42h100.35v1.8H14.86z" style="fill:#0099fc"/><path d="M14.86 161.62h100.35v1.8H14.86z" style="fill:#009afb"/><path d="M14.86 159.82h100.35v1.8H14.86z" style="fill:#009bfa"/><path d="M14.86 158.02h100.35v1.8H14.86z" style="fill:#009cfa"/><path d="M14.86 156.22h100.35v1.8H14.86z" style="fill:#009df9"/><path d="M14.86 154.43h100.35v1.8H14.86z" style="fill:#009ef9"/><path d="M14.86 152.63h100.35v1.8H14.86z" style="fill:#009ff8"/><path d="M14.86 150.83h100.35v1.8H14.86z" style="fill:#00a0f8"/><path d="M14.86 149.03h100.35v1.8H14.86z" style="fill:#00a1f7"/><path d="M14.86 147.24h100.35v1.8H14.86z" style="fill:#00a2f6"/><path d="M14.86 145.44h100.35v1.8H14.86z" style="fill:#00a3f6"/><path d="M14.86 143.64h100.35v1.8H14.86z" style="fill:#00a4f5"/><path d="M14.86 141.84h100.35v1.8H14.86z" style="fill:#00a5f5"/><path d="M14.86 140.04h100.35v1.8H14.86z" style="fill:#00a6f4"/><path d="M14.86 138.25h100.35v1.8H14.86z" style="fill:#00a7f4"/><path d="M14.86 136.45h100.35v1.8H14.86z" style="fill:#00a8f3"/><path d="M14.86 134.65h100.35v1.8H14.86z" style="fill:#00a9f3"/><path d="M14.86 132.85h100.35v1.8H14.86z" style="fill:#00aaf2"/><path d="M14.86 131.06h100.35v1.8H14.86z" style="fill:#00abf1"/><path d="M14.86 129.26h100.35v1.8H14.86z" style="fill:#00acf1"/><path d="M14.86 127.46h100.35v1.8H14.86z" style="fill:#00adf0"/><path d="M14.86 125.66h100.35v1.8H14.86z" style="fill:#00aef0"/><path d="M14.86 123.87h100.35v1.8H14.86z" style="fill:#00afef"/><path d="M14.86 122.07h100.35v1.8H14.86z" style="fill:#00b0ef"/><path d="M14.86 120.27h100.35v1.8H14.86z" style="fill:#00b1ee"/><path d="M14.86 118.47h100.35v1.8H14.86z" style="fill:#00b2ed"/><path d="M14.86 116.67h100.35v1.8H14.86z" style="fill:#00b3ed"/><path d="M14.86 114.88h100.35v1.8H14.86z" style="fill:#00b4ec"/><path d="M14.86 113.08h100.35v1.8H14.86z" style="fill:#00b5ec"/><path d="M14.86 111.28h100.35v1.8H14.86z" style="fill:#00b6eb"/><path d="M14.86 109.48h100.35v1.8H14.86z" style="fill:#00b7eb"/><path d="M14.86 107.69h100.35v1.8H14.86z" style="fill:#00b8ea"/><path d="M14.86 105.89h100.35v1.8H14.86z" style="fill:#00b9e9"/><path d="M14.86 104.09h100.35v1.8H14.86z" style="fill:#00bae9"/><path d="M14.86 102.29h100.35v1.8H14.86z" style="fill:#00bbe8"/><path d="M14.86 100.49h100.35v1.8H14.86z" style="fill:#00bce8"/><path d="M14.86 98.7h100.35v1.8H14.86z" style="fill:#00bde7"/><path d="M14.86 96.9h100.35v1.8H14.86z" style="fill:#00bee7"/><path d="M14.86 95.1h100.35v1.8H14.86z" style="fill:#00c0e6"/><path d="M14.86 93.3h100.35v1.8H14.86z" style="fill:#00c1e5"/><path d="M14.86 91.51h100.35v1.8H14.86z" style="fill:#00c2e5"/><path d="M14.86 89.71h100.35v1.8H14.86z" style="fill:#00c3e4"/><path d="M14.86 87.91h100.35v1.8H14.86z" style="fill:#00c4e4"/><path d="M14.86 86.11h100.35v1.8H14.86z" style="fill:#00c5e3"/><path d="M14.86 84.31h100.35v1.8H14.86z" style="fill:#00c6e3"/><path d="M14.86 82.52h100.35v1.8H14.86z" style="fill:#00c7e2"/><path d="M14.86 80.72h100.35v1.8H14.86z" style="fill:#00c8e1"/><path d="M14.86 78.92h100.35v1.8H14.86z" style="fill:#00c9e1"/><path d="M14.86 77.12h100.35v1.8H14.86z" style="fill:#00cae0"/><path d="M14.86 75.33h100.35v1.8H14.86z" style="fill:#00cbe0"/><path d="M14.86 73.53h100.35v1.8H14.86z" style="fill:#00ccdf"/><path d="M14.86 71.73h100.35v1.8H14.86z" style="fill:#00cddf"/><path d="M14.86 69.93h100.35v1.8H14.86z" style="fill:#00cede"/><path d="M14.86 68.13h100.35v1.8H14.86z" style="fill:#00cfdd"/><path d="M14.86 66.34h100.35v1.8H14.86z" style="fill:#00d0dd"/><path d="M14.86 64.54h100.35v1.8H14.86z" style="fill:#00d1dc"/><path d="M14.86 62.74h100.35v1.8H14.86z" style="fill:#00d2dc"/><path d="M14.86 60.94h100.35v1.8H14.86z" style="fill:#00d3db"/><path d="M14.86 59.15h100.35v1.8H14.86z" style="fill:#00d4db"/><path d="M14.86 57.35h100.35v1.8H14.86z" style="fill:#00d5da"/><path d="M14.86 55.55h100.35v1.8H14.86z" style="fill:#00d6da"/><path d="M14.86 53.75h100.35v1.8H14.86z" style="fill:#00d7d9"/><path d="M14.86 51.96h100.35v1.8H14.86z" style="fill:#00d8d8"/><path d="M14.86 50.16h100.35v1.8H14.86z" style="fill:#00d9d8"/><path d="M14.86 48.36h100.35v1.8H14.86z" style="fill:#00dad7"/><path d="M14.86 46.56h100.35v1.8H14.86z" style="fill:#00dbd7"/><path d="M14.86 44.76h100.35v1.8H14.86z" style="fill:#00dcd6"/><path d="M14.86 42.97h100.35v1.8H14.86z" style="fill:#00ddd6"/><path d="M14.86 41.17h100.35v1.8H14.86z" style="fill:#00ded5"/><path d="M14.86 39.37h100.35v1.8H14.86z" style="fill:#00dfd4"/><path d="M14.86 37.57h100.35v1.8H14.86z" style="fill:#00e0d4"/><path d="M14.86 35.78h100.35v1.8H14.86z" style="fill:#00e1d3"/><path d="M14.86 33.98h100.35v1.8H14.86z" style="fill:#00e2d3"/><path d="M14.86 32.18h100.35v1.8H14.86z" style="fill:#00e3d2"/><path d="M14.86 30.38h100.35v1.8H14.86z" style="fill:#00e4d2"/><path d="M14.86 28.58h100.35v1.8H14.86z" style="fill:#00e5d1"/><path d="M14.86 26.79h100.35v1.8H14.86z" style="fill:#00e6d0"/><path d="M14.86 24.99h100.35v1.8H14.86z" style="fill:#00e7d0"/><path d="M14.86 23.19h100.35v1.8H14.86z" style="fill:#00e8cf"/><path d="M14.86 21.39h100.35v1.8H14.86z" style="fill:#00e9cf"/><path d="M14.86 19.6h100.35v1.8H14.86z" style="fill:#00eace"/><path d="M14.86 17.8h100.35v1.8H14.86z" style="fill:#00ebce"/><path d="M14.86 16h100.35v1.8H14.86zm0-1.14h100.35V16H14.86z" style="fill:#00eccd"/></g><path d="M95.98 191c-1.25 0-2.51-.07-3.76-.21-16.09-1.79-28.97-15.34-29.95-31.53-.65-10.77 3.92-21.3 12.24-28.16 1.14-.94 1.82-2.58 1.82-4.4v-.37c0-1.26-.46-2.62-1.21-3.55-2.24-2.79-4.6-5.09-6.31-6.17-.94-.59-2.05-.91-3.12-.91h-.38c-1.81 0-3.45.68-4.38 1.81-6.45 7.82-15.96 12.31-26.09 12.31s-18.8-4.11-25.22-11.27c-6.41-7.16-9.48-16.77-8.41-26.37C3 76.09 16.56 63.22 32.75 62.24c10.78-.66 21.3 3.92 28.16 12.24.94 1.14 2.59 1.82 4.41 1.82h.37c1.28 0 2.62-.47 3.67-1.3 2.58-2.02 5.02-4.54 6.08-6.25.58-.93.89-2.02.89-3.08v-.38c0-1.81-.67-3.44-1.8-4.37-7.83-6.45-12.32-15.95-12.32-26.08 0-9.61 4.11-18.79 11.27-25.2 7.15-6.43 16.77-9.5 26.36-8.43 16.09 1.79 28.97 15.34 29.95 31.53.65 10.77-3.92 21.3-12.24 28.16-1.14.94-1.82 2.58-1.82 4.4v.25c0 1.81.67 3.44 1.8 4.37 7.83 6.45 12.32 15.95 12.32 26.08s-4.49 19.64-12.32 26.08c-1.13.93-1.8 2.57-1.8 4.37v.26c0 1.81.67 3.44 1.8 4.37 7.83 6.45 12.32 15.95 12.32 26.08 0 9.61-4.11 18.79-11.27 25.2-6.22 5.57-14.3 8.62-22.61 8.62Zm.05-38.96c-.77.77-1.59 1.51-2.44 2.22-.56.46-1.48 1.49-1.38 3.19.11 1.76 1.6 3.34 3.32 3.53 1.46.16 2.47-.42 3.05-.94.48-.43 1.28-1.37 1.28-2.85s-.87-2.5-1.39-2.93c-.85-.7-1.67-1.44-2.44-2.22Zm-5.04-56.05c1.89 1.7 3.6 3.47 5.07 5.13.77-.76 1.57-1.49 2.41-2.19.52-.43 1.39-1.38 1.39-2.93s-.87-2.5-1.39-2.93a34.7 34.7 0 0 1-2.38-2.15 61.84 61.84 0 0 1-5.11 5.06Zm-56.16-3.81h-.26c-1.76.11-3.34 1.59-3.54 3.32-.16 1.46.42 2.46.94 3.04.43.48 1.37 1.28 2.86 1.28s2.51-.87 2.93-1.39c.7-.85 1.44-1.66 2.21-2.43-.77-.77-1.51-1.58-2.21-2.43-.44-.53-1.39-1.39-2.94-1.39ZM96.04 31c-1.2 0-2.05.51-2.56.97-.48.43-1.28 1.37-1.28 2.85s.87 2.5 1.39 2.93c.85.7 1.67 1.44 2.44 2.22a36.7 36.7 0 0 1 2.44-2.22c.56-.46 1.48-1.49 1.38-3.19-.11-1.76-1.6-3.34-3.32-3.53-.17-.02-.33-.03-.49-.03Z" class="cls-80"/><path d="M127.28 81.47h-6.94c2.01 4.23 3.09 8.91 3.09 13.73 0 4.11-.82 8.1-2.3 11.82h6.15c12.77 0 23.16 9.74 23.16 21.72s-10.39 21.72-23.16 21.72h-4.63c.51 2.28.78 4.64.78 7.03 0 6.74-2.09 13.14-5.92 18.52h9.77c26.87 0 48.72-21.2 48.72-47.27s-21.86-47.26-48.72-47.26Z" class="cls-94"/><path d="M114.86 96c0-5.85-2.67-11.06-6.85-14.5-4.72-3.89-7.27-9.83-7.27-15.95v-.25c0-6.13 2.55-12.08 7.27-15.97 4.46-3.68 7.2-9.36 6.81-15.67-.55-9.02-7.65-16.53-16.64-17.53-11.37-1.26-20.99 7.6-20.99 18.7 0 5.85 2.67 11.06 6.85 14.5 4.72 3.89 7.27 9.83 7.27 15.95v.38c0 3.87-1.11 7.69-3.14 10.98-2.3 3.71-6.14 7.45-9.56 10.14-3.67 2.89-8.26 4.51-12.94 4.51h-.37c-6.13 0-12.08-2.55-15.98-7.27-3.68-4.46-9.36-7.19-15.68-6.81-9.02.55-16.54 7.65-17.54 16.63-1.26 11.36 7.6 20.98 18.71 20.98 5.85 0 11.06-2.67 14.51-6.85 3.89-4.72 9.84-7.27 15.96-7.27h.38c3.91 0 7.78 1.13 11.08 3.21 3.71 2.33 7.31 6.09 10.04 9.49 2.91 3.63 4.52 8.29 4.52 12.94v.37c0 6.13-2.55 12.08-7.27 15.97-4.46 3.68-7.2 9.36-6.81 15.67.55 9.02 7.65 16.53 16.64 17.53 11.37 1.26 20.99-7.6 20.99-18.7 0-5.85-2.67-11.06-6.85-14.5-4.72-3.89-7.27-9.83-7.27-15.95v-.26c0-6.12 2.55-12.06 7.27-15.95 4.18-3.45 6.85-8.66 6.85-14.5Z" style="fill:url(#linear-gradient)"/></svg>